<?xml version="1.0" encoding="utf-8"?>
<!-- Generator: Adobe Illustrator 18.0.0, SVG Export Plug-In . SVG Version: 6.00 Build 0)  -->
<!DOCTYPE svg PUBLIC "-//W3C//DTD SVG 1.1//EN" "http://www.w3.org/Graphics/SVG/1.1/DTD/svg11.dtd">
<svg version="1.1" id="Layer_1" xmlns="http://www.w3.org/2000/svg" xmlns:xlink="http://www.w3.org/1999/xlink" x="0px" y="0px"
	 viewBox="231.5 231.5 48 48" enable-background="new 231.5 231.5 48 48" xml:space="preserve">
<linearGradient id="SVGID_1_" gradientUnits="userSpaceOnUse" x1="232.4949" y1="256.1669" x2="279.1624" y2="256.1669">
	<stop  offset="0" style="stop-color:#C3559C"/>
	<stop  offset="0.5" style="stop-color:#7F3F94"/>
	<stop  offset="1" style="stop-color:#2D328E"/>
</linearGradient>
<path fill="url(#SVGID_1_)" d="M277.5,234.5C277.5,234.5,277.5,234.5,277.5,234.5c-2.5-2.5-7-2.1-13.1,1.1c-0.8,0.4-1.7,0.9-2.6,1.5
	c-1.9-0.6-4-0.9-6-0.9c-9,0-17,6.1-19.3,14.8c-0.1,0.4,0.1,0.7,0.5,0.8c0.1,0,0.1,0,0.2,0c0.3,0,0.6-0.2,0.7-0.5
	c0.3-1.2,0.8-2.3,1.3-3.4h9.5c-0.7,2.5-1.1,5.1-1.1,7.6h-10.3c0-0.4,0-0.8,0.1-1.2c0-0.4-0.2-0.7-0.6-0.7c-0.4,0-0.7,0.2-0.7,0.6
	c-0.1,0.7-0.1,1.4-0.1,2.1c0,2.1,0.3,4.1,0.9,6c-0.5,0.9-1,1.8-1.5,2.6c-3.2,6.1-3.6,10.6-1.1,13.1h0v0c1.1,1.1,2.6,1.6,4.4,1.6
	c2.4,0,5.3-0.9,8.7-2.7c0.8-0.4,1.7-0.9,2.6-1.5c1.9,0.6,4,0.9,6,0.9h0c5.4,0,10.4-2.1,14.2-5.9c3.8-3.8,5.9-8.8,5.9-14.2
	c0-2.1-0.3-4.1-0.9-6c0.4-0.7,0.8-1.4,1.2-2c0.2-0.3,0.1-0.7-0.3-0.9c-0.3-0.2-0.7-0.1-0.9,0.3c-0.4,0.7-0.8,1.5-1.3,2.2
	c0,0,0,0,0,0c-1.2,1.9-2.6,3.8-4.1,5.8h-1.2l-0.8-0.2l-0.4-0.5c2.5-3.1,4.5-6.1,6-8.9c3.4-6.4,2.2-8.3,1.7-8.8
	c-0.5-0.5-2.4-1.7-8.8,1.7c-0.1,0-0.1,0.1-0.2,0.1c-0.1,0-0.1-0.1-0.2-0.1c-0.7-0.4-1.5-0.8-2.2-1.1c0.5-0.3,1.1-0.6,1.6-0.9
	c2.4-1.3,4.5-2.1,6.4-2.4c2.3-0.4,4,0,5.1,1.1c0,0,0,0,0,0c0.9,0.9,1.3,2.3,1.2,4c-0.1,1.5-0.6,3.2-1.5,5.2c-0.2,0.3,0,0.7,0.4,0.9
	c0.1,0,0.2,0.1,0.3,0.1c0.3,0,0.5-0.2,0.6-0.4c0.9-2.1,1.5-4,1.6-5.7C279.3,237.4,278.7,235.7,277.5,234.5z M255.8,237.8
	c2.2,2.1,3.9,4.9,5.1,8.1c0.1,0.2,0.2,0.4,0.2,0.7h-10.7C251.7,243.1,253.5,240.1,255.8,237.8z M250.1,264.5c-0.7-2.4-1.1-5-1.2-7.6
	h10.7c-0.1,0.4,0,0.7,0.3,1.1l1.2,1.6c-0.3,0.3-0.6,0.6-0.9,1c-1.4,1.4-2.9,2.8-4.3,4H250.1z M254.2,265.9c-1,0.8-1.9,1.5-2.8,2.2
	c-0.3-0.7-0.6-1.5-0.9-2.2H254.2z M239.9,265.9C239.9,265.9,239.9,265.9,239.9,265.9C239.9,265.9,239.9,265.9,239.9,265.9l9.1-0.1
	c0.3,1.1,0.8,2.1,1.2,3.1c-1.6,1.1-3.1,2.1-4.5,2.9C243.4,270.3,241.4,268.3,239.9,265.9z M244.4,272.6c-2.4,1.3-4,1.7-5,1.8
	c-1.1,0.2-1.6,0-1.7-0.1c-0.1-0.1-0.3-0.6-0.1-1.7c0.1-0.9,0.6-2.5,1.8-5C240.7,269.6,242.4,271.2,244.4,272.6z M248.9,255.5
	c0.1-2.7,0.5-5.2,1.2-7.6h11.5c0.7,2.3,1.1,4.8,1.2,7.3c0,0,0,0,0,0l-1.2,0.3H248.9z M239.9,246.5c3-5,8.3-8.3,14.2-8.9
	c-2.1,2.2-3.7,5-4.8,8.2c-0.1,0.2-0.2,0.5-0.2,0.7H239.9z M247.5,256.8c0.1,2.6,0.4,5.2,1.1,7.6h-9.5c-1.2-2.4-1.8-5-1.9-7.6H247.5z
	 M249.3,273.9C249.3,273.9,249.3,273.9,249.3,273.9c-0.9,0.6-1.9,1.1-2.8,1.6c-3.2,1.7-6,2.6-8.1,2.6c-1.5,0-2.6-0.4-3.4-1.2
	c0,0,0,0,0,0c-1.1-1.1-1.5-2.8-1.1-5.1c0.3-1.8,1.1-4,2.4-6.4c0.3-0.5,0.6-1,0.9-1.6c0.2,0.6,0.5,1.1,0.8,1.6c0,0,0,0,0,0
	c0.1,0.2,0.2,0.4,0.3,0.6c0,0.1,0.1,0.1,0.1,0.2c0,0.1-0.1,0.1-0.1,0.2c-3.4,6.4-2.2,8.3-1.7,8.8c0.2,0.2,0.7,0.6,1.9,0.6
	c1.3,0,3.5-0.5,6.9-2.3c0.2-0.1,0.4-0.2,0.5-0.3c0,0,0,0,0,0c1.8-1,3.6-2.2,5.5-3.5c0,0,0,0,0,0c1.6-1.2,3.3-2.5,5-4c0,0,0,0,0,0
	c1.5-1.3,3.1-2.8,4.6-4.3c0,0,0,0,0,0l0,0.5c0,0.5,0.2,0.9,0.5,1.2c0.2,0.2,0.5,0.3,0.7,0.3C258.1,267.6,253.5,271.3,249.3,273.9z
	 M251.3,274.3c0.5-0.3,1-0.7,1.5-1c0.4,0.5,0.8,1,1.3,1.5C253.2,274.7,252.2,274.5,251.3,274.3z M254,272.4c2.3-1.7,4.6-3.6,6.9-5.7
	c-1.2,3.1-2.9,5.8-5,7.8C255.2,273.9,254.5,273.2,254,272.4z M257.5,274.7c2.2-2.4,3.9-5.4,5.1-8.9h9.2
	C268.8,270.8,263.6,274.2,257.5,274.7z M273.9,251.7c0.3,1.2,0.5,2.5,0.5,3.8h-3.3C272.2,254.2,273.1,252.9,273.9,251.7z
	 M270.3,258.1c0.3-0.3,0.4-0.8,0.2-1.2h3.9c-0.1,2.7-0.8,5.3-2,7.6h-9.3c0.2-0.2,0.3-0.3,0.5-0.5c0.5-0.5,0.9-0.9,1.4-1.4l2,0.8
	c0.2,0.1,0.3,0.1,0.5,0.1c0.3,0,0.6-0.1,0.8-0.2c0.4-0.3,0.6-0.7,0.6-1.1l0-2.2L270.3,258.1z M268,256.8
	C268,256.8,268,256.8,268,256.8l1.3,0.4c0,0,0,0,0,0c0,0,0,0,0,0l0,0c0,0,0,0,0,0l-1.4,1.7c-0.2,0.2-0.3,0.6-0.3,0.9l0,2.2
	c0,0,0,0,0,0l-2.1-0.8c-0.2-0.1-0.3-0.1-0.5-0.1c-0.1,0-0.3,0-0.4,0.1l-0.1,0c0,0,0,0,0,0l-2,0.7c0,0,0,0,0,0l0.1-2.2
	c0,0,0-0.1,0-0.1c0,0,0,0,0,0c0,0,0,0,0,0c0-0.3-0.1-0.5-0.3-0.8l-1.3-1.8c0,0,0,0,0,0l2.1-0.6c0.3-0.1,0.6-0.3,0.8-0.5l1.3-1.8
	c0,0,0,0,0,0l0.6,0.9c0,0,0,0,0,0l0.6,1c0.2,0.3,0.4,0.5,0.7,0.6L268,256.8z M266.4,253.5l-0.1-0.1c-0.3-0.4-0.7-0.6-1.1-0.6
	c-0.5,0-0.9,0.2-1.1,0.6l0,0c-0.2-1.9-0.5-3.8-1-5.6h7.5C269.3,249.7,267.9,251.6,266.4,253.5z M272.3,237.9c1.1-0.2,1.6,0,1.7,0.1
	c0.1,0.1,0.3,0.6,0.1,1.7c-0.1,0.9-0.6,2.5-1.8,5c-1.4-1.9-3-3.6-5-5C269.7,238.5,271.3,238,272.3,237.9z M265.1,239.9
	c0.2,0.1,0.3,0.2,0.5,0.3c0,0,0,0,0,0c2.4,1.5,4.4,3.5,5.9,5.8c-0.1,0.1-0.2,0.3-0.2,0.4h-8.7c-0.1-0.4-0.3-0.8-0.4-1.1
	c-1.1-3-2.7-5.6-4.7-7.8C260.2,237.8,262.8,238.6,265.1,239.9z"/>
</svg>
