<?xml version="1.0" encoding="utf-8"?>
<!-- Generator: Adobe Illustrator 18.0.0, SVG Export Plug-In . SVG Version: 6.00 Build 0)  -->
<!DOCTYPE svg PUBLIC "-//W3C//DTD SVG 1.1//EN" "http://www.w3.org/Graphics/SVG/1.1/DTD/svg11.dtd">
<svg version="1.1" id="Capa_1" xmlns="http://www.w3.org/2000/svg" xmlns:xlink="http://www.w3.org/1999/xlink" x="0px" y="0px"
	 viewBox="232 232 48 48" enable-background="new 232 232 48 48" xml:space="preserve">
<g>
	<g>
		<linearGradient id="SVGID_1_" gradientUnits="userSpaceOnUse" x1="241.0785" y1="258.4645" x2="270.9214" y2="258.4645">
			<stop  offset="0" style="stop-color:#C3559C"/>
			<stop  offset="0.5" style="stop-color:#7F3F94"/>
			<stop  offset="1" style="stop-color:#2D328E"/>
		</linearGradient>
		<path fill="url(#SVGID_1_)" d="M262.2,265.4c5.3-2.4,8.8-7.8,8.8-13.6c0-3.2-1-6.2-2.8-8.7c-0.2-0.3-0.7-0.4-1-0.2
			c-0.3,0.2-0.4,0.7-0.2,1c1.7,2.3,2.5,5,2.5,7.9c0,5.3-3.1,10.1-7.9,12.3c-0.9,0.4-1.5,1.4-1.5,2.4v3.2H252v-3.2
			c0-1-0.6-1.9-1.5-2.4c-4.9-2.2-8-7.1-8-12.4c0-7.4,6.1-13.5,13.5-13.5c3.3,0,6.4,1.2,8.9,3.3c0.3,0.3,0.7,0.2,1-0.1
			c0.3-0.3,0.2-0.7-0.1-1c-2.7-2.4-6.2-3.7-9.8-3.7c-4,0-7.7,1.5-10.5,4.3c-2.8,2.8-4.4,6.5-4.4,10.5c0,5.9,3.4,11.2,8.8,13.7
			c0.4,0.2,0.7,0.6,0.7,1.1v3.2h-0.2c-0.9,0-1.7,0.7-1.7,1.7v1.1c0,0.9,0.7,1.6,1.5,1.6l0.6,3.7c0.2,1.3,1.3,2.2,2.6,2.2h1
			c0.4,0,0.7-0.3,0.7-0.7c0-0.4-0.3-0.7-0.7-0.7h-1c-0.6,0-1.1-0.4-1.2-1l-0.6-3.5h1.1c0.4,0,0.7-0.3,0.7-0.7c0-0.4-0.3-0.7-0.7-0.7
			h-2.4c-0.1,0-0.2-0.1-0.2-0.2v-1.1c0-0.1,0.1-0.2,0.2-0.2h11.4c0.1,0,0.2,0.1,0.2,0.2v1.1c0,0.1-0.1,0.2-0.2,0.2H256
			c-0.4,0-0.7,0.3-0.7,0.7c0,0.4,0.3,0.7,0.7,0.7h4.4l-0.6,3.5c-0.1,0.6-0.6,1-1.2,1h-1c-0.4,0-0.7,0.3-0.7,0.7
			c0,0.4,0.3,0.7,0.7,0.7h1c1.3,0,2.4-0.9,2.6-2.2l0.6-3.7c0.9-0.1,1.5-0.8,1.5-1.6v-1.1c0-0.9-0.7-1.7-1.7-1.7h-0.2v-3.2
			C261.4,266,261.7,265.6,262.2,265.4L262.2,265.4z"/>
		<linearGradient id="SVGID_2_" gradientUnits="userSpaceOnUse" x1="247.3341" y1="251.071" x2="264.6658" y2="251.071">
			<stop  offset="0" style="stop-color:#C3559C"/>
			<stop  offset="0.5" style="stop-color:#7F3F94"/>
			<stop  offset="1" style="stop-color:#2D328E"/>
		</linearGradient>
		<path fill="url(#SVGID_2_)" d="M247.3,255.6v4.2c0,0.4,0.3,0.7,0.7,0.7H264c0.4,0,0.7-0.3,0.7-0.7v-4.2c0-2.5-2-4.5-4.5-4.5h-0.5
			c1.1-1,1.8-2.4,1.8-4c0-3-2.4-5.4-5.4-5.4s-5.4,2.4-5.4,5.4c0,1.6,0.7,3,1.8,4h-0.5C249.4,251.1,247.3,253.1,247.3,255.6
			L247.3,255.6z M252,247.1c0-2.2,1.8-4,4-4s4,1.8,4,4c0,2.2-1.8,4-4,4S252,249.3,252,247.1z M260.2,252.5c1.7,0,3.1,1.4,3.1,3.1
			v3.5h-2.6v-1.2c0-0.4-0.3-0.7-0.7-0.7c-0.4,0-0.7,0.3-0.7,0.7v1.2h-6.6v-1.2c0-0.4-0.3-0.7-0.7-0.7s-0.7,0.3-0.7,0.7v1.2h-2.6
			v-3.5c0-1.7,1.4-3.1,3.1-3.1H260.2z"/>
		<linearGradient id="SVGID_3_" gradientUnits="userSpaceOnUse" x1="255.2962" y1="233.6303" x2="256.7038" y2="233.6303">
			<stop  offset="0" style="stop-color:#C3559C"/>
			<stop  offset="0.5" style="stop-color:#7F3F94"/>
			<stop  offset="1" style="stop-color:#2D328E"/>
		</linearGradient>
		<path fill="url(#SVGID_3_)" d="M256,235.3c0.4,0,0.7-0.3,0.7-0.7v-1.9c0-0.4-0.3-0.7-0.7-0.7c-0.4,0-0.7,0.3-0.7,0.7v1.9
			C255.3,235,255.6,235.3,256,235.3z"/>
		<linearGradient id="SVGID_4_" gradientUnits="userSpaceOnUse" x1="245.7226" y1="236.0684" x2="248.0782" y2="236.0684">
			<stop  offset="0" style="stop-color:#C3559C"/>
			<stop  offset="0.5" style="stop-color:#7F3F94"/>
			<stop  offset="1" style="stop-color:#2D328E"/>
		</linearGradient>
		<path fill="url(#SVGID_4_)" d="M246.8,237.2c0.1,0.2,0.4,0.4,0.6,0.4c0.1,0,0.2,0,0.4-0.1c0.3-0.2,0.5-0.6,0.3-1l-0.9-1.6
			c-0.2-0.3-0.6-0.5-1-0.3c-0.3,0.2-0.5,0.6-0.3,1L246.8,237.2z"/>
		<linearGradient id="SVGID_5_" gradientUnits="userSpaceOnUse" x1="238.7144" y1="242.7298" x2="241.7639" y2="242.7298">
			<stop  offset="0" style="stop-color:#C3559C"/>
			<stop  offset="0.5" style="stop-color:#7F3F94"/>
			<stop  offset="1" style="stop-color:#2D328E"/>
		</linearGradient>
		<path fill="url(#SVGID_5_)" d="M239.1,242.9l1.6,0.9c0.1,0.1,0.2,0.1,0.4,0.1c0.2,0,0.5-0.1,0.6-0.4c0.2-0.3,0.1-0.8-0.3-1
			l-1.6-0.9c-0.3-0.2-0.8-0.1-1,0.3C238.6,242.2,238.7,242.7,239.1,242.9z"/>
		<linearGradient id="SVGID_6_" gradientUnits="userSpaceOnUse" x1="236.1493" y1="251.8294" x2="239.4525" y2="251.8294">
			<stop  offset="0" style="stop-color:#C3559C"/>
			<stop  offset="0.5" style="stop-color:#7F3F94"/>
			<stop  offset="1" style="stop-color:#2D328E"/>
		</linearGradient>
		<path fill="url(#SVGID_6_)" d="M239.5,251.8c0-0.4-0.3-0.7-0.7-0.7h-1.9c-0.4,0-0.7,0.3-0.7,0.7s0.3,0.7,0.7,0.7h1.9
			C239.1,252.5,239.5,252.2,239.5,251.8z"/>
		<linearGradient id="SVGID_7_" gradientUnits="userSpaceOnUse" x1="238.7144" y1="260.9289" x2="241.7639" y2="260.9289">
			<stop  offset="0" style="stop-color:#C3559C"/>
			<stop  offset="0.5" style="stop-color:#7F3F94"/>
			<stop  offset="1" style="stop-color:#2D328E"/>
		</linearGradient>
		<path fill="url(#SVGID_7_)" d="M240.7,259.8l-1.6,0.9c-0.3,0.2-0.5,0.6-0.3,1c0.1,0.2,0.4,0.4,0.6,0.4c0.1,0,0.2,0,0.4-0.1
			l1.6-0.9c0.3-0.2,0.5-0.6,0.3-1C241.5,259.8,241,259.7,240.7,259.8z"/>
		<linearGradient id="SVGID_8_" gradientUnits="userSpaceOnUse" x1="263.9217" y1="236.0685" x2="266.2774" y2="236.0685">
			<stop  offset="0" style="stop-color:#C3559C"/>
			<stop  offset="0.5" style="stop-color:#7F3F94"/>
			<stop  offset="1" style="stop-color:#2D328E"/>
		</linearGradient>
		<path fill="url(#SVGID_8_)" d="M264.3,237.5c0.1,0.1,0.2,0.1,0.4,0.1c0.2,0,0.5-0.1,0.6-0.4l0.9-1.6c0.2-0.3,0.1-0.8-0.3-1
			c-0.3-0.2-0.8-0.1-1,0.3l-0.9,1.6C263.8,236.9,263.9,237.3,264.3,237.5L264.3,237.5z"/>
		<linearGradient id="SVGID_9_" gradientUnits="userSpaceOnUse" x1="270.2361" y1="242.7298" x2="273.2856" y2="242.7298">
			<stop  offset="0" style="stop-color:#C3559C"/>
			<stop  offset="0.5" style="stop-color:#7F3F94"/>
			<stop  offset="1" style="stop-color:#2D328E"/>
		</linearGradient>
		<path fill="url(#SVGID_9_)" d="M270.9,243.9c0.1,0,0.2,0,0.4-0.1l1.6-0.9c0.3-0.2,0.5-0.6,0.3-1c-0.2-0.3-0.6-0.5-1-0.3l-1.6,0.9
			c-0.3,0.2-0.5,0.6-0.3,1C270.5,243.8,270.7,243.9,270.9,243.9L270.9,243.9z"/>
		<linearGradient id="SVGID_10_" gradientUnits="userSpaceOnUse" x1="272.5475" y1="251.8294" x2="275.8507" y2="251.8294">
			<stop  offset="0" style="stop-color:#C3559C"/>
			<stop  offset="0.5" style="stop-color:#7F3F94"/>
			<stop  offset="1" style="stop-color:#2D328E"/>
		</linearGradient>
		<path fill="url(#SVGID_10_)" d="M275.1,251.1h-1.9c-0.4,0-0.7,0.3-0.7,0.7s0.3,0.7,0.7,0.7h1.9c0.4,0,0.7-0.3,0.7-0.7
			S275.5,251.1,275.1,251.1z"/>
		<linearGradient id="SVGID_11_" gradientUnits="userSpaceOnUse" x1="270.2361" y1="260.9289" x2="273.2856" y2="260.9289">
			<stop  offset="0" style="stop-color:#C3559C"/>
			<stop  offset="0.5" style="stop-color:#7F3F94"/>
			<stop  offset="1" style="stop-color:#2D328E"/>
		</linearGradient>
		<path fill="url(#SVGID_11_)" d="M272.9,260.8l-1.6-0.9c-0.3-0.2-0.8-0.1-1,0.3c-0.2,0.3-0.1,0.8,0.3,1l1.6,0.9
			c0.1,0.1,0.2,0.1,0.4,0.1c0.2,0,0.5-0.1,0.6-0.4C273.4,261.4,273.3,261,272.9,260.8L272.9,260.8z"/>
	</g>
</g>
</svg>
