<?xml version="1.0" encoding="utf-8"?>
<!-- Generator: Adobe Illustrator 18.0.0, SVG Export Plug-In . SVG Version: 6.00 Build 0)  -->
<!DOCTYPE svg PUBLIC "-//W3C//DTD SVG 1.1//EN" "http://www.w3.org/Graphics/SVG/1.1/DTD/svg11.dtd">
<svg version="1.1" id="Layer_1" xmlns="http://www.w3.org/2000/svg" xmlns:xlink="http://www.w3.org/1999/xlink" x="0px" y="0px"
	 viewBox="232 232 48 48" enable-background="new 232 232 48 48" xml:space="preserve">
<g id="Page-1">
	<g id="_x30_20---Genius">
		<linearGradient id="Shape_1_" gradientUnits="userSpaceOnUse" x1="232" y1="256.1411" x2="279.756" y2="256.1411">
			<stop  offset="0" style="stop-color:#C3559C"/>
			<stop  offset="0.5" style="stop-color:#7F3F94"/>
			<stop  offset="1" style="stop-color:#2D328E"/>
		</linearGradient>
		<path id="Shape" fill="url(#Shape_1_)" d="M268.4,258.9c0.9,0.9,2.1,1.3,3.4,1.2c1.2-0.1,2.4-0.7,3.1-1.7
			c5.4-1.5,7.4-6.3,0.4-12.8c3.9-3.7,5.3-7.1,4-9.8c-0.3-0.6-0.8-1.1-1.3-1.6c-0.3-0.8-1-1.5-1.8-1.8c-0.8-0.3-1.7-0.3-2.5,0.1
			c-4.5-0.8-10.9,0-17.8,2.3c-7-2.3-13.5-3.1-18-2.3c-1-0.5-2.2-0.4-3.2,0.1s-1.7,1.5-1.8,2.6c-2.4,3.3,0.6,7.5,3.6,10.3
			c-8.8,8.3-4,14.4,8.2,13.2c0,3-0.8,5.9,2.4,9.1v2.3c-1.2,1-2.6,1.8-4.1,2.2c-2.3,0.4-3.5,1.4-7.7,3.6c-1.5,0.8-3.2,1.3-3.2,3.2
			c0,0.2,0.1,0.4,0.2,0.6c0.2,0.2,0.4,0.2,0.6,0.2h46.1c0.2,0,0.4-0.1,0.6-0.2c0.1-0.2,0.2-0.4,0.2-0.6c0-1.6-1.2-2.3-2.7-3
			c-0.8-0.4-3.2-1.7-3.9-2.1c-3.8-2.2-4.1-1.2-6.4-2.6c-0.7-0.4-1.4-0.9-2-1.4v-2.3c3.1-3.1,2.4-5.8,2.4-9.1
			C267.5,258.9,267.9,258.9,268.4,258.9L268.4,258.9z M271.5,248.7c2.1,2.1,2.4,3.3,2.4,3.4l0,0c-1.8-1.3-4.3-0.9-5.8,0.8
			c-1,0-2.1-0.1-3.1-0.3C267.2,251.5,269.4,250.2,271.5,248.7L271.5,248.7z M271.4,258.5c-1.5,0-2.8-1.2-2.8-2.8
			c0-1.5,1.2-2.8,2.8-2.8s2.8,1.2,2.8,2.8C274.2,257.3,272.9,258.5,271.4,258.5z M275.7,256.4c0.2-1.1-0.1-2.3-0.7-3.2
			c1.4-1.4-0.8-4.1-2.2-5.5c0.4-0.3,0.9-0.7,1.3-1.1C277.7,250,280.3,254.4,275.7,256.4z M273.6,245c-3.4,2.9-7.2,5.3-11.3,7.1
			c-1.3-0.3-2.6-0.6-3.9-1c4.8-1.7,9.3-4.1,13.3-7.2c2.5-2,4.1-4,4.4-5.5c0.8-0.3,1.4-0.9,1.8-1.7
			C278.8,238.7,277.2,241.8,273.6,245z M239.7,237.2c2.9-0.2,5.9,0,8.8,0.7c-2.7,1.3-5.4,2.8-7.9,4.5c-1.1-0.9-2.1-2-2.9-3.1
			C238.6,238.8,239.4,238.1,239.7,237.2z M245.5,241.2c-0.7,1.1-1.2,2.3-1.4,3.6c-0.6-0.4-1.1-0.7-2.1-1.5
			C243,242.6,244.2,241.9,245.5,241.2L245.5,241.2z M251.8,238.5c2.6-0.9,5.5-0.9,8.1,0c3.5,1.1,6,3.5,6.3,7.2
			c-3.3,1.9-6.8,3.5-10.4,4.7c-3.6-1.2-7.1-2.8-10.4-4.7C245.9,242,248.3,239.6,251.8,238.5L251.8,238.5z M274.4,238.6
			c-0.8,1.4-1.9,2.7-3.2,3.7c-2.5-1.7-5.1-3.2-7.9-4.5c3-0.7,6-0.9,9-0.6C272.8,237.9,273.5,238.4,274.4,238.6L274.4,238.6z
			 M267.7,244.8c-0.2-1.3-0.7-2.5-1.4-3.6c1.2,0.7,2.4,1.4,3.5,2.2C268.7,244.2,268.2,244.5,267.7,244.8L267.7,244.8z M276.6,235.5
			c0,0.9-0.7,1.6-1.6,1.6s-1.6-0.7-1.6-1.6c0-0.9,0.7-1.6,1.6-1.6S276.6,234.6,276.6,235.5z M272.2,234c-0.3,0.5-0.4,1-0.4,1.5
			c-3.6-0.3-8,0.5-11.6,1.4c-1.1-0.3-2.3-0.6-3.4-0.7C262.5,234.4,268.1,233.6,272.2,234L272.2,234z M253.4,235.8
			c-0.9,0.3-1.8,0.7-2.5,1c-3.6-1-7.3-1.4-10.9-1.2c0-0.5-0.2-1.1-0.5-1.5C243.1,233.6,248.1,234.2,253.4,235.8z M236.4,233.9
			c1.1,0,2,0.9,2,2c0,1.1-0.9,2-2,2c-1.1,0-2-0.9-2-2C234.4,234.8,235.3,233.9,236.4,233.9z M233.6,238.1c0.6,0.7,1.4,1.2,2.4,1.3
			c1,1.8,2.4,3.3,4.1,4.5c6.7,5.4,18.4,9.9,27.1,10.5c-0.3,0.9-0.3,1.9,0.1,2.8c-9.2-0.9-19.8-5.2-26.6-10.2
			C238,245.1,233.8,241.4,233.6,238.1z M240.3,248.7c2.1,1.5,4.3,2.8,6.5,3.9c-1.5,0.2-3,0.3-4.5,0.4c-3.1,0-4.3-0.6-4.4-0.8
			C237.9,252,238.2,250.8,240.3,248.7L240.3,248.7z M237.7,246.7c0.4,0.4,0.9,0.7,1.3,1.1c-2.2,2.2-3.1,4.1-2.5,5.2
			c0.6,1,2.7,1.6,5.9,1.6c2.3,0,4.6-0.3,6.9-0.8c1.3,0.6,2.4,1.1,4.1,1.7C237.9,260,227.4,256.2,237.7,246.7L237.7,246.7z
			 M235.4,277.7c0.9-0.4,3.3-1.7,4.1-2.2c3.1-1.8,3.4-1.3,5.1-1.9c-0.1,1.6,0,3.2,0.3,4.8H234C234.5,278.1,234.9,277.9,235.4,277.7z
			 M272.3,275.5c0.8,0.4,3.1,1.7,4.1,2.2c0.5,0.2,0.9,0.4,1.3,0.7H267c0.3-1.6,0.4-3.2,0.3-4.8C269,274.3,269.3,273.7,272.3,275.5z
			 M265.6,272.7c0.3,1.9,0.2,3.8-0.2,5.7h-18.9c-0.4-1.9-0.5-3.8-0.2-5.7c0.3-0.2,0.6-0.4,0.9-0.6v1.4c0,0.4,0.4,0.8,0.8,0.8
			s0.8-0.4,0.8-0.8v-4c1.9,2.4,2.5,4.8,5.6,4.8c4.6,0,5.3,0.4,7.6-3.1c0.3-0.5,0.7-1.1,1.2-1.7v4c0,0.4,0.4,0.8,0.8,0.8
			c0.4,0,0.8-0.4,0.8-0.8v-1.4C265,272.4,265.2,272.6,265.6,272.7z M263.4,266.9c0,0-0.1,0.1-0.1,0.1c-1,1-1.9,2.2-2.7,3.4
			c-1.8,2.8-1.8,2.4-6.3,2.4c-2.6,0-2.6-2.8-5.8-5.8c0,0-0.1-0.1-0.1-0.1c-2.9-2.8-2-5.1-2.1-8.3c3.3-0.5,6.5-1.2,9.6-2.3
			c3.1,1,6.4,1.8,9.6,2.3C265.4,261.9,266.3,264.1,263.4,266.9L263.4,266.9z"/>
	</g>
</g>
</svg>
